<svg xmlns="http://www.w3.org/2000/svg" xmlns:xlink="http://www.w3.org/1999/xlink" width="512" zoomAndPan="magnify" viewBox="0 0 384 383.999986" height="512" preserveAspectRatio="xMidYMid meet" version="1.0"><defs><g/></defs><rect x="-38.4" width="460.8" fill="#ffffff" y="-38.399999" height="460.799983" fill-opacity="1"/><rect x="-38.4" width="460.8" fill="#ffffff" y="-38.399999" height="460.799983" fill-opacity="1"/><path fill="#518be3" d="M 351.726562 37.1875 C 247.425781 49.570312 192.210938 0.03125 192.210938 0.03125 C 192.210938 0.03125 136.992188 49.570312 32.695312 37.1875 C 32.695312 37.1875 -28.660156 284.886719 192.210938 383.96875 C 413.078125 284.886719 351.726562 37.1875 351.726562 37.1875 Z M 351.726562 37.1875 " fill-opacity="1" fill-rule="nonzero"/><path fill="#2564c4" d="M 192.210938 342.804688 C 56.960938 273.40625 55.3125 137.101562 62.160156 76.320312 C 62.890625 76.324219 63.617188 76.332031 64.34375 76.332031 C 124.578125 76.324219 167.4375 58.882812 192.210938 44.8125 C 216.976562 58.882812 259.839844 76.332031 320.074219 76.332031 C 320.808594 76.332031 321.535156 76.324219 322.265625 76.320312 C 329.105469 137.03125 327.488281 273.386719 192.210938 342.804688 Z M 192.210938 342.804688 " fill-opacity="1" fill-rule="nonzero"/><path fill="#f8ead3" d="M 266.582031 167.230469 L 217 167.230469 L 217 117.6875 L 167.417969 117.6875 L 167.417969 167.230469 L 117.835938 167.230469 L 117.835938 216.769531 L 167.417969 216.769531 L 167.417969 266.3125 L 217 266.3125 L 217 216.769531 L 266.582031 216.769531 Z M 266.582031 167.230469 " fill-opacity="1" fill-rule="nonzero"/><path fill="#32addb" d="M 86.847656 383.96875 C 85.261719 383.96875 83.675781 383.363281 82.464844 382.15625 C 80.042969 379.734375 80.042969 375.816406 82.464844 373.398438 L 125.847656 330.050781 C 128.269531 327.632812 132.191406 327.632812 134.613281 330.050781 C 137.035156 332.46875 137.035156 336.390625 134.613281 338.808594 L 91.226562 382.15625 C 90.019531 383.363281 88.433594 383.96875 86.847656 383.96875 Z M 86.847656 383.96875 " fill-opacity="1" fill-rule="nonzero"/><path fill="#32addb" d="M 248.484375 165.03125 L 301.074219 217.574219 L 178.363281 340.183594 C 173.527344 345.015625 165.671875 345.015625 160.832031 340.183594 L 125.773438 305.152344 C 120.933594 300.316406 120.933594 292.46875 125.773438 287.636719 Z M 248.484375 165.03125 " fill-opacity="1" fill-rule="nonzero"/><path fill="#71d6fc" d="M 134.539062 313.910156 L 152.066406 331.421875 L 134.539062 348.9375 L 117.007812 331.421875 Z M 134.539062 313.910156 " fill-opacity="1" fill-rule="nonzero"/><path fill="#71d6fc" d="M 248.484375 130 L 336.132812 217.574219 L 318.605469 235.089844 L 230.953125 147.515625 Z M 248.484375 130 " fill-opacity="1" fill-rule="nonzero"/><path fill="#71d6fc" d="M 322.988281 81.832031 L 384.34375 143.136719 L 366.8125 160.648438 L 305.457031 99.347656 Z M 322.988281 81.832031 " fill-opacity="1" fill-rule="nonzero"/><path fill="#32addb" d="M 327.367188 121.242188 L 344.898438 138.757812 L 301.074219 182.542969 L 283.542969 165.03125 Z M 327.367188 121.242188 " fill-opacity="1" fill-rule="nonzero"/><path fill="#298bb0" d="M 257.25 226.332031 L 266.015625 217.574219 L 283.542969 235.089844 L 274.777344 243.84375 Z M 257.25 226.332031 " fill-opacity="1" fill-rule="nonzero"/><path fill="#298bb0" d="M 239.722656 243.84375 L 248.488281 235.089844 L 266.015625 252.609375 L 257.25 261.363281 Z M 239.722656 243.84375 " fill-opacity="1" fill-rule="nonzero"/><path fill="#298bb0" d="M 222.191406 261.363281 L 230.953125 252.605469 L 248.484375 270.121094 L 239.722656 278.878906 Z M 222.191406 261.363281 " fill-opacity="1" fill-rule="nonzero"/><path fill="#298bb0" d="M 204.660156 278.875 L 213.421875 270.121094 L 230.953125 287.632812 L 222.1875 296.390625 Z M 204.660156 278.875 " fill-opacity="1" fill-rule="nonzero"/><path fill="#298bb0" d="M 187.128906 296.390625 L 195.894531 287.636719 L 213.425781 305.15625 L 204.660156 313.910156 Z M 187.128906 296.390625 " fill-opacity="1" fill-rule="nonzero"/><path fill="#298bb0" d="M 169.597656 313.910156 L 178.359375 305.152344 L 195.894531 322.664062 L 187.132812 331.421875 Z M 169.597656 313.910156 " fill-opacity="1" fill-rule="nonzero"/><g fill="#ffffff" fill-opacity="0.4"><g transform="translate(88.327343, 104.307842)"><g><path d="M 22.5625 -51.03125 L 18.140625 -50.234375 L 28.421875 -15.4375 L 29.140625 -12.234375 L 29.390625 -12.234375 L 30.0625 -15.34375 L 40.390625 -50.234375 L 36 -51.03125 L 36 -58.046875 L 57.21875 -58.046875 L 57.21875 -51.03125 L 52.34375 -50.390625 L 35.25 0 L 23.28125 0 L 6.140625 -50.390625 L 1.359375 -51.03125 L 1.359375 -58.046875 L 22.5625 -58.046875 Z M 22.5625 -51.03125 "/></g></g></g><g fill="#ffffff" fill-opacity="0.4"><g transform="translate(146.854044, 104.307842)"><g><path d="M 49.796875 -38.46875 L 41.140625 -38.46875 L 39.953125 -46.203125 C 38.804688 -47.347656 37.363281 -48.253906 35.625 -48.921875 C 33.882812 -49.585938 31.832031 -49.921875 29.46875 -49.921875 C 24.414062 -49.921875 20.523438 -48.085938 17.796875 -44.421875 C 15.078125 -40.753906 13.71875 -35.96875 13.71875 -30.0625 L 13.71875 -28.03125 C 13.71875 -22.125 15.070312 -17.320312 17.78125 -13.625 C 20.488281 -9.9375 24.316406 -8.09375 29.265625 -8.09375 C 31.546875 -8.09375 33.632812 -8.425781 35.53125 -9.09375 C 37.4375 -9.757812 38.910156 -10.660156 39.953125 -11.796875 L 41.140625 -19.53125 L 49.796875 -19.53125 L 49.796875 -8.046875 C 47.460938 -5.335938 44.476562 -3.175781 40.84375 -1.5625 C 37.21875 0.0390625 33.160156 0.84375 28.671875 0.84375 C 20.878906 0.84375 14.5 -1.851562 9.53125 -7.25 C 4.5625 -12.644531 2.078125 -19.570312 2.078125 -28.03125 L 2.078125 -29.984375 C 2.078125 -38.410156 4.546875 -45.332031 9.484375 -50.75 C 14.429688 -56.175781 20.828125 -58.890625 28.671875 -58.890625 C 33.160156 -58.890625 37.210938 -58.070312 40.828125 -56.4375 C 44.441406 -54.800781 47.429688 -52.640625 49.796875 -49.953125 Z M 49.796875 -38.46875 "/></g></g></g><g fill="#ffffff" fill-opacity="0.4"><g transform="translate(199.759318, 104.307842)"><g><path d="M 55.296875 -28.59375 C 55.296875 -20.082031 52.863281 -13.046875 48 -7.484375 C 43.132812 -1.929688 36.769531 0.84375 28.90625 0.84375 C 21.0625 0.84375 14.726562 -1.929688 9.90625 -7.484375 C 5.082031 -13.046875 2.671875 -20.082031 2.671875 -28.59375 L 2.671875 -29.46875 C 2.671875 -37.914062 5.078125 -44.929688 9.890625 -50.515625 C 14.703125 -56.097656 21.023438 -58.890625 28.859375 -58.890625 C 36.734375 -58.890625 43.109375 -56.097656 47.984375 -50.515625 C 52.859375 -44.929688 55.296875 -37.914062 55.296875 -29.46875 Z M 43.703125 -29.546875 C 43.703125 -35.554688 42.453125 -40.429688 39.953125 -44.171875 C 37.453125 -47.921875 33.753906 -49.796875 28.859375 -49.796875 C 23.972656 -49.796875 20.328125 -47.9375 17.921875 -44.21875 C 15.515625 -40.5 14.3125 -35.609375 14.3125 -29.546875 L 14.3125 -28.59375 C 14.3125 -22.476562 15.523438 -17.550781 17.953125 -13.8125 C 20.390625 -10.082031 24.039062 -8.21875 28.90625 -8.21875 C 33.820312 -8.21875 37.515625 -10.082031 39.984375 -13.8125 C 42.460938 -17.550781 43.703125 -22.476562 43.703125 -28.59375 Z M 43.703125 -29.546875 "/></g></g></g><g fill="#ffffff" fill-opacity="0.4"><g transform="translate(257.488653, 104.307842)"><g><path d="M 2.234375 0 L 2.234375 -6.984375 L 8.40625 -8.171875 L 8.40625 -49.84375 L 2.234375 -51.03125 L 2.234375 -58.046875 L 26.28125 -58.046875 L 26.28125 -51.03125 L 20.0625 -49.84375 L 20.0625 -8.9375 L 36.4375 -8.9375 L 37 -16.234375 L 45.890625 -16.234375 L 45.890625 0 Z M 2.234375 0 "/></g></g></g><g fill="#ffffff" fill-opacity="1"><g transform="translate(83.478341, 102.148927)"><g><path d="M 22.5625 -51.03125 L 18.140625 -50.234375 L 28.421875 -15.4375 L 29.140625 -12.234375 L 29.390625 -12.234375 L 30.0625 -15.34375 L 40.390625 -50.234375 L 36 -51.03125 L 36 -58.046875 L 57.21875 -58.046875 L 57.21875 -51.03125 L 52.34375 -50.390625 L 35.25 0 L 23.28125 0 L 6.140625 -50.390625 L 1.359375 -51.03125 L 1.359375 -58.046875 L 22.5625 -58.046875 Z M 22.5625 -51.03125 "/></g></g></g><g fill="#ffffff" fill-opacity="1"><g transform="translate(142.005042, 102.148927)"><g><path d="M 49.796875 -38.46875 L 41.140625 -38.46875 L 39.953125 -46.203125 C 38.804688 -47.347656 37.363281 -48.253906 35.625 -48.921875 C 33.882812 -49.585938 31.832031 -49.921875 29.46875 -49.921875 C 24.414062 -49.921875 20.523438 -48.085938 17.796875 -44.421875 C 15.078125 -40.753906 13.71875 -35.96875 13.71875 -30.0625 L 13.71875 -28.03125 C 13.71875 -22.125 15.070312 -17.320312 17.78125 -13.625 C 20.488281 -9.9375 24.316406 -8.09375 29.265625 -8.09375 C 31.546875 -8.09375 33.632812 -8.425781 35.53125 -9.09375 C 37.4375 -9.757812 38.910156 -10.660156 39.953125 -11.796875 L 41.140625 -19.53125 L 49.796875 -19.53125 L 49.796875 -8.046875 C 47.460938 -5.335938 44.476562 -3.175781 40.84375 -1.5625 C 37.21875 0.0390625 33.160156 0.84375 28.671875 0.84375 C 20.878906 0.84375 14.5 -1.851562 9.53125 -7.25 C 4.5625 -12.644531 2.078125 -19.570312 2.078125 -28.03125 L 2.078125 -29.984375 C 2.078125 -38.410156 4.546875 -45.332031 9.484375 -50.75 C 14.429688 -56.175781 20.828125 -58.890625 28.671875 -58.890625 C 33.160156 -58.890625 37.210938 -58.070312 40.828125 -56.4375 C 44.441406 -54.800781 47.429688 -52.640625 49.796875 -49.953125 Z M 49.796875 -38.46875 "/></g></g></g><g fill="#ffffff" fill-opacity="1"><g transform="translate(194.910316, 102.148927)"><g><path d="M 55.296875 -28.59375 C 55.296875 -20.082031 52.863281 -13.046875 48 -7.484375 C 43.132812 -1.929688 36.769531 0.84375 28.90625 0.84375 C 21.0625 0.84375 14.726562 -1.929688 9.90625 -7.484375 C 5.082031 -13.046875 2.671875 -20.082031 2.671875 -28.59375 L 2.671875 -29.46875 C 2.671875 -37.914062 5.078125 -44.929688 9.890625 -50.515625 C 14.703125 -56.097656 21.023438 -58.890625 28.859375 -58.890625 C 36.734375 -58.890625 43.109375 -56.097656 47.984375 -50.515625 C 52.859375 -44.929688 55.296875 -37.914062 55.296875 -29.46875 Z M 43.703125 -29.546875 C 43.703125 -35.554688 42.453125 -40.429688 39.953125 -44.171875 C 37.453125 -47.921875 33.753906 -49.796875 28.859375 -49.796875 C 23.972656 -49.796875 20.328125 -47.9375 17.921875 -44.21875 C 15.515625 -40.5 14.3125 -35.609375 14.3125 -29.546875 L 14.3125 -28.59375 C 14.3125 -22.476562 15.523438 -17.550781 17.953125 -13.8125 C 20.390625 -10.082031 24.039062 -8.21875 28.90625 -8.21875 C 33.820312 -8.21875 37.515625 -10.082031 39.984375 -13.8125 C 42.460938 -17.550781 43.703125 -22.476562 43.703125 -28.59375 Z M 43.703125 -29.546875 "/></g></g></g><g fill="#ffffff" fill-opacity="1"><g transform="translate(252.639651, 102.148927)"><g><path d="M 2.234375 0 L 2.234375 -6.984375 L 8.40625 -8.171875 L 8.40625 -49.84375 L 2.234375 -51.03125 L 2.234375 -58.046875 L 26.28125 -58.046875 L 26.28125 -51.03125 L 20.0625 -49.84375 L 20.0625 -8.9375 L 36.4375 -8.9375 L 37 -16.234375 L 45.890625 -16.234375 L 45.890625 0 Z M 2.234375 0 "/></g></g></g></svg>