<svg xmlns="http://www.w3.org/2000/svg" viewBox="0 0 26 26"><path style="line-height:normal;text-indent:0;text-align:start;text-decoration-line:none;text-decoration-style:solid;text-decoration-color:#000;text-transform:none;block-progression:tb;isolation:auto;mix-blend-mode:normal" fill="#d8a353" d="M5.797 0A5.796 5.796 0 0 0 0 5.799v14.404A5.795 5.795 0 0 0 5.797 26h14.406A5.795 5.795 0 0 0 26 20.203V5.8A5.796 5.796 0 0 0 20.203 0H5.797zm0 1h14.406A4.777 4.777 0 0 1 25 5.799v14.404A4.775 4.775 0 0 1 20.203 25H5.797A4.775 4.775 0 0 1 1 20.203V5.8A4.777 4.777 0 0 1 5.797 1zM5.62 8l-.012.016h-.082a.5.5 0 0 0-.5.5v.232L5 8.783l.027.022V17.5a.5.5 0 0 0 .5.5h14.97a.5.5 0 0 0 .501-.5V8.519a.5.5 0 0 0-.502-.5H5.641l-.02-.015V8zm1.281 1.016H19.13l-6.11 4.847-6.117-4.847zm-.877.582 6.686 5.297a.5.5 0 0 0 .62 0l6.665-5.293V17H6.026V9.598z" class="color000000 svgShape" color="#000" font-family="sans-serif" font-weight="400" overflow="visible"/></svg>