<svg xmlns="http://www.w3.org/2000/svg" xmlns:xlink="http://www.w3.org/1999/xlink" width="500" zoomAndPan="magnify" viewBox="0 0 375 374.999991" height="500" preserveAspectRatio="xMidYMid meet" version="1.0"><defs><clipPath id="2f4ae94dce"><path d="M 100 87.644531 L 275 87.644531 L 275 287.144531 L 100 287.144531 Z M 100 87.644531 " clip-rule="nonzero"/></clipPath><clipPath id="ea036f64c7"><path d="M 129 258 L 159 258 L 159 287.144531 L 129 287.144531 Z M 129 258 " clip-rule="nonzero"/></clipPath></defs><g clip-path="url(#2f4ae94dce)"><path fill="#518be3" d="M 270.347656 106.960938 C 216.160156 113.394531 187.472656 87.65625 187.472656 87.65625 C 187.472656 87.65625 158.789062 113.394531 104.601562 106.960938 C 104.601562 106.960938 72.726562 235.65625 187.472656 287.132812 C 302.21875 235.65625 270.347656 106.960938 270.347656 106.960938 Z M 270.347656 106.960938 " fill-opacity="1" fill-rule="nonzero"/></g><path fill="#2564c4" d="M 187.472656 265.746094 C 117.207031 229.6875 116.351562 158.871094 119.910156 127.292969 C 120.289062 127.296875 120.667969 127.300781 121.042969 127.300781 C 152.339844 127.296875 174.605469 118.234375 187.472656 110.921875 C 200.339844 118.234375 222.609375 127.300781 253.902344 127.300781 C 254.285156 127.300781 254.660156 127.296875 255.042969 127.292969 C 258.59375 158.835938 257.757812 229.679688 187.472656 265.746094 Z M 187.472656 265.746094 " fill-opacity="1" fill-rule="nonzero"/><path fill="#f8ead3" d="M 226.113281 174.527344 L 200.355469 174.527344 L 200.355469 148.785156 L 174.59375 148.785156 L 174.59375 174.527344 L 148.835938 174.527344 L 148.835938 200.265625 L 174.59375 200.265625 L 174.59375 226.003906 L 200.355469 226.003906 L 200.355469 200.265625 L 226.113281 200.265625 Z M 226.113281 174.527344 " fill-opacity="1" fill-rule="nonzero"/><g clip-path="url(#ea036f64c7)"><path fill="#32addb" d="M 132.734375 287.132812 C 131.910156 287.132812 131.085938 286.820312 130.460938 286.191406 C 129.203125 284.933594 129.203125 282.898438 130.460938 281.640625 L 153 259.121094 C 154.257812 257.863281 156.292969 257.863281 157.550781 259.121094 C 158.808594 260.375 158.808594 262.414062 157.550781 263.667969 L 135.011719 286.191406 C 134.382812 286.820312 133.558594 287.132812 132.734375 287.132812 Z M 132.734375 287.132812 " fill-opacity="1" fill-rule="nonzero"/></g><path fill="#32addb" d="M 216.710938 173.382812 L 244.03125 200.683594 L 180.28125 264.382812 C 177.765625 266.894531 173.6875 266.894531 171.171875 264.382812 L 152.957031 246.183594 C 150.445312 243.671875 150.445312 239.59375 152.957031 237.082031 Z M 216.710938 173.382812 " fill-opacity="1" fill-rule="nonzero"/><path fill="#71d6fc" d="M 157.511719 250.734375 L 166.621094 259.832031 L 157.511719 268.933594 L 148.40625 259.832031 Z M 157.511719 250.734375 " fill-opacity="1" fill-rule="nonzero"/><path fill="#71d6fc" d="M 216.710938 155.183594 L 262.246094 200.683594 L 253.140625 209.78125 L 207.601562 164.28125 Z M 216.710938 155.183594 " fill-opacity="1" fill-rule="nonzero"/><path fill="#71d6fc" d="M 255.417969 130.15625 L 287.292969 162.007812 L 278.183594 171.105469 L 246.308594 139.257812 Z M 255.417969 130.15625 " fill-opacity="1" fill-rule="nonzero"/><path fill="#32addb" d="M 257.691406 150.632812 L 266.800781 159.730469 L 244.03125 182.484375 L 234.925781 173.382812 Z M 257.691406 150.632812 " fill-opacity="1" fill-rule="nonzero"/><path fill="#298bb0" d="M 221.265625 205.230469 L 225.816406 200.683594 L 234.925781 209.78125 L 230.371094 214.332031 Z M 221.265625 205.230469 " fill-opacity="1" fill-rule="nonzero"/><path fill="#298bb0" d="M 212.15625 214.332031 L 216.710938 209.78125 L 225.816406 218.882812 L 221.265625 223.433594 Z M 212.15625 214.332031 " fill-opacity="1" fill-rule="nonzero"/><path fill="#298bb0" d="M 203.050781 223.433594 L 207.601562 218.882812 L 216.710938 227.980469 L 212.160156 232.53125 Z M 203.050781 223.433594 " fill-opacity="1" fill-rule="nonzero"/><path fill="#298bb0" d="M 193.941406 232.53125 L 198.496094 227.984375 L 207.601562 237.082031 L 203.050781 241.632812 Z M 193.941406 232.53125 " fill-opacity="1" fill-rule="nonzero"/><path fill="#298bb0" d="M 184.835938 241.632812 L 189.390625 237.082031 L 198.496094 246.183594 L 193.941406 250.734375 Z M 184.835938 241.632812 " fill-opacity="1" fill-rule="nonzero"/><path fill="#298bb0" d="M 175.726562 250.734375 L 180.277344 246.183594 L 189.390625 255.28125 L 184.835938 259.832031 Z M 175.726562 250.734375 " fill-opacity="1" fill-rule="nonzero"/></svg>